<?xml version="1.0" encoding="iso-8859-1"?>
<!-- Generator: Adobe Illustrator 19.0.0, SVG Export Plug-In . SVG Version: 6.00 Build 0)  -->
<svg version="1.1" id="Layer_1" xmlns="http://www.w3.org/2000/svg" xmlns:xlink="http://www.w3.org/1999/xlink" x="0px" y="0px"
	 viewBox="0 0 511.999 511.999" style="enable-background:new 0 0 511.999 511.999;" xml:space="preserve">
<path style="fill:#D2555A;" d="M255.999,0L255.999,0c-66.923,0-121.173,54.251-121.173,121.173v48.206h242.346v-48.206
	C377.172,54.251,322.921,0,255.999,0z"/>
<path style="opacity:0.1;enable-background:new    ;" d="M272.303,1.096C266.969,0.378,261.53,0,255.999,0l0,0
	c-66.922,0-121.173,54.251-121.173,121.173v48.206h32.606v-48.206C167.433,59.781,213.092,9.059,272.303,1.096z"/>
<path style="fill:#249ED9;" d="M362.253,344.885H149.746c-58.412,0-105.766,47.353-105.766,105.766v61.348h424.039v-61.348
	C468.019,392.239,420.665,344.885,362.253,344.885z"/>
<path style="opacity:0.1;enable-background:new    ;" d="M184.526,344.885h-34.78c-58.412,0-105.766,47.353-105.766,105.766v61.348
	h34.78v-61.348C78.76,392.239,126.114,344.885,184.526,344.885z"/>
<g>
	<path style="fill:#1D80B0;" d="M255.999,481.404l100.968-193.703c0,0,52.692,20.328,53.259,74.72l-66.857,18.13l18.698,61.191
		L255.999,481.404z"/>
	<path style="fill:#1D80B0;" d="M255.999,481.404L155.031,287.701c0,0-52.692,20.328-53.259,74.72l66.857,18.13l-18.698,61.191
		L255.999,481.404z"/>
</g>
<path style="fill:#FFFFFF;" d="M255.999,481.404l71.16-136.519H184.838C214.45,401.694,255.999,481.404,255.999,481.404z"/>
<path style="fill:#FFD782;" d="M134.826,169.38v92.881c0,66.922,54.251,121.173,121.173,121.173l0,0
	c66.922,0,121.172-54.251,121.172-121.173V169.38l-120.63-21.111L134.826,169.38z"/>
<path style="opacity:0.1;enable-background:new    ;" d="M167.433,262.26V169.38l105.34-18.269l-16.23-2.84L134.826,169.38v92.881
	c0,66.922,54.251,121.173,121.173,121.173l0,0c5.529,0,10.97-0.378,16.303-1.096C213.092,374.373,167.433,323.652,167.433,262.26z"
	/>
<g>
	<circle style="fill:#464655;" cx="200.018" cy="230.886" r="13.681"/>
	<circle style="fill:#464655;" cx="311.989" cy="230.886" r="13.681"/>
	<path style="fill:#464655;" d="M267.753,257.853h-23.508c-22.896,0-41.457,18.561-41.457,41.457l0,0
		c0,9.55,7.34,17.768,16.879,18.217c10.185,0.479,18.594-7.636,18.594-17.717c0,9.796,7.941,17.737,17.737,17.737
		c9.796,0,17.737-7.941,17.737-17.737c0,10.08,8.409,18.197,18.594,17.717c9.54-0.449,16.879-8.667,16.879-18.217l0,0
		C309.21,276.414,290.649,257.853,267.753,257.853z"/>
</g>
<g>
	<path style="fill:#1D80B0;" d="M126.02,511.999V410.013c0-4.502-3.65-8.152-8.152-8.152c-4.502,0-8.152,3.65-8.152,8.152v101.985
		H126.02z"/>
	<path style="fill:#1D80B0;" d="M402.282,511.999V410.013c0-4.502-3.65-8.152-8.152-8.152s-8.152,3.65-8.152,8.152v101.985H402.282z
		"/>
</g>
<path style="fill:#FF6465;" d="M388.583,217.204c-8.446,0-16.663-4.38-21.194-12.219c-1.714-2.964-9.329-13.36-35.35-22.671
	c-21.352-7.641-48.355-11.848-76.039-11.848c-27.683,0-54.688,4.207-76.038,11.848c-26.022,9.311-33.636,19.707-35.35,22.671
	c-6.759,11.693-21.719,15.691-33.411,8.931c-11.693-6.76-15.691-21.718-8.931-33.411c20.703-35.81,81.047-58.948,153.73-58.948
	c72.684,0,133.028,23.139,153.731,58.948c6.76,11.693,2.762,26.651-8.931,33.412C396.945,216.144,392.736,217.204,388.583,217.204z"
	/>
<g style="opacity:0.1;">
	<path d="M132.937,203.046c-11.693-6.76-15.691-21.718-8.931-33.411c6.716-11.617,17.625-21.889,31.752-30.481
		c-24.83,10.172-43.646,24.324-53.49,41.349c-6.76,11.693-2.762,26.651,8.931,33.411c11.244,6.502,25.507,3.049,32.596-7.626
		C140.088,206.083,136.372,205.032,132.937,203.046z"/>
</g>
<g>
</g>
<g>
</g>
<g>
</g>
<g>
</g>
<g>
</g>
<g>
</g>
<g>
</g>
<g>
</g>
<g>
</g>
<g>
</g>
<g>
</g>
<g>
</g>
<g>
</g>
<g>
</g>
<g>
</g>
</svg>
