<?xml version="1.0" encoding="iso-8859-1"?>
<!-- Generator: Adobe Illustrator 19.0.0, SVG Export Plug-In . SVG Version: 6.00 Build 0)  -->
<svg version="1.1" id="Layer_1" xmlns="http://www.w3.org/2000/svg" xmlns:xlink="http://www.w3.org/1999/xlink" x="0px" y="0px"
	 viewBox="0 0 512.001 512.001" style="enable-background:new 0 0 512.001 512.001;" xml:space="preserve">
<path style="fill:#249ED9;" d="M482.434,29.266H29.567C13.237,29.266,0,42.504,0,58.832V453.17
	c0,16.329,13.237,29.566,29.567,29.566h452.867c16.329,0,29.567-13.237,29.567-29.566V58.832
	C512,42.504,498.763,29.266,482.434,29.266z M333.503,82.801c0,11.946-9.684,21.63-21.63,21.63H200.128
	c-11.946,0-21.63-9.684-21.63-21.63l0,0c0-11.946,9.684-21.63,21.63-21.63h111.746C323.819,61.17,333.503,70.854,333.503,82.801
	L333.503,82.801z"/>
<rect x="61.551" y="134.003" style="fill:#BAC2D9;" width="388.895" height="30.775"/>
<rect x="61.551" y="134.003" style="opacity:0.1;enable-background:new    ;" width="68.641" height="30.775"/>
<rect x="29.788" y="119.512" style="fill:#707487;" width="75.42" height="59.756"/>
<rect x="381.813" y="134.003" style="opacity:0.1;enable-background:new    ;" width="68.641" height="30.775"/>
<rect x="406.797" y="119.512" style="fill:#707487;" width="75.42" height="59.756"/>
<rect x="61.551" y="219.666" style="fill:#BAC2D9;" width="225.955" height="30.775"/>
<rect x="61.551" y="219.666" style="opacity:0.1;enable-background:new    ;" width="68.641" height="30.775"/>
<rect x="29.788" y="205.176" style="fill:#707487;" width="75.42" height="59.756"/>
<rect x="218.872" y="219.666" style="opacity:0.1;enable-background:new    ;" width="68.641" height="30.775"/>
<g>
	<rect x="243.857" y="205.176" style="fill:#707487;" width="75.42" height="59.756"/>
	<rect x="376.381" y="219.666" style="fill:#707487;" width="48.198" height="30.775"/>
	<rect x="376.381" y="305.33" style="fill:#707487;" width="48.198" height="30.775"/>
	<rect x="376.381" y="390.993" style="fill:#707487;" width="48.198" height="30.775"/>
</g>
<g>
	<rect x="406.797" y="205.176" style="fill:#BAC2D9;" width="75.42" height="59.756"/>
	<rect x="61.551" y="305.33" style="fill:#BAC2D9;" width="225.955" height="30.775"/>
</g>
<rect x="61.551" y="305.33" style="opacity:0.1;enable-background:new    ;" width="68.641" height="30.775"/>
<rect x="218.872" y="305.33" style="opacity:0.1;enable-background:new    ;" width="68.641" height="30.775"/>
<g>
	<rect x="29.788" y="290.839" style="fill:#707487;" width="75.42" height="59.756"/>
	<rect x="243.857" y="290.839" style="fill:#707487;" width="75.42" height="59.756"/>
</g>
<rect x="61.551" y="390.993" style="fill:#BAC2D9;" width="225.955" height="30.775"/>
<rect x="61.551" y="390.993" style="opacity:0.1;enable-background:new    ;" width="68.641" height="30.775"/>
<rect x="218.872" y="390.993" style="opacity:0.1;enable-background:new    ;" width="68.641" height="30.775"/>
<g>
	<rect x="29.788" y="376.502" style="fill:#707487;" width="75.42" height="59.756"/>
	<rect x="243.857" y="376.502" style="fill:#707487;" width="75.42" height="59.756"/>
</g>
<g>
	<rect x="406.797" y="290.839" style="fill:#BAC2D9;" width="75.42" height="59.756"/>
	<rect x="406.797" y="376.502" style="fill:#BAC2D9;" width="75.42" height="59.756"/>
</g>
<g style="opacity:0.1;">
	<path d="M65.176,453.17V58.832c0-16.329,13.237-29.567,29.567-29.567H29.567C13.237,29.266,0,42.504,0,58.832V453.17
		c0,16.329,13.237,29.566,29.567,29.566h65.176C78.413,482.737,65.176,469.5,65.176,453.17z"/>
</g>
<g>
</g>
<g>
</g>
<g>
</g>
<g>
</g>
<g>
</g>
<g>
</g>
<g>
</g>
<g>
</g>
<g>
</g>
<g>
</g>
<g>
</g>
<g>
</g>
<g>
</g>
<g>
</g>
<g>
</g>
</svg>
