<?xml version="1.0" encoding="iso-8859-1"?>
<!-- Generator: Adobe Illustrator 19.0.0, SVG Export Plug-In . SVG Version: 6.00 Build 0)  -->
<svg version="1.1" id="Layer_1" xmlns="http://www.w3.org/2000/svg" xmlns:xlink="http://www.w3.org/1999/xlink" x="0px" y="0px"
	 viewBox="0 0 511.999 511.999" style="enable-background:new 0 0 511.999 511.999;" xml:space="preserve">
<path style="fill:#D2555A;" d="M283.456,0H74.262C56.204,0,41.565,14.639,41.565,32.697v368.59
	c0,18.058,14.639,32.697,32.697,32.697h209.194c18.058,0,32.697-14.639,32.697-32.697V32.697C316.153,14.639,301.514,0,283.456,0z"
	/>
<path style="opacity:0.1;enable-background:new    ;" d="M106.812,401.288V32.697C106.812,14.639,121.451,0,139.509,0H74.262
	C56.204,0,41.565,14.639,41.565,32.697v368.59c0,18.058,14.639,32.697,32.697,32.697h65.247
	C121.451,433.986,106.812,419.346,106.812,401.288z"/>
<path style="fill:#464655;" d="M265.845,184.821H91.873c-5.317,0-9.629,4.311-9.629,9.629v173.972c0,5.317,4.311,9.629,9.629,9.629
	h173.972c5.317,0,9.629-4.311,9.629-9.629V194.45C275.474,189.133,271.162,184.821,265.845,184.821z"/>
<path style="fill:#00CC79;" d="M260.182,144.537H97.536c-8.446,0-15.291-6.847-15.291-15.291V45.48
	c0-8.446,6.847-15.291,15.291-15.291h162.646c8.446,0,15.291,6.847,15.291,15.291v83.765
	C275.474,137.692,268.627,144.537,260.182,144.537z"/>
<circle style="fill:#D2555A;" cx="178.862" cy="281.439" r="61.743"/>
<path style="opacity:0.1;enable-background:new    ;" d="M141.718,281.436c0-29.887,21.236-54.812,49.442-60.514
	c-3.976-0.803-8.089-1.229-12.301-1.229c-34.1,0-61.743,27.643-61.743,61.743s27.643,61.743,61.743,61.743
	c4.212,0,8.325-0.425,12.301-1.229C162.954,336.248,141.718,311.324,141.718,281.436z"/>
<path style="fill:#FF6465;" d="M135.578,340.762c-4.106,0-8.213-1.567-11.344-4.7c-6.266-6.265-6.266-16.424,0-22.69l86.561-86.563
	c6.265-6.266,16.424-6.266,22.69,0c6.266,6.265,6.266,16.424,0,22.69l-86.561,86.562
	C143.791,339.195,139.684,340.762,135.578,340.762z"/>
<g>
	<circle style="fill:#464655;" cx="178.862" cy="405.997" r="10.792"/>
	<circle style="fill:#464655;" cx="108.738" cy="405.997" r="10.792"/>
</g>
<path style="fill:#2A2A33;" d="M448.162,378.235c-4.43,0-8.022,3.592-8.022,8.022v78.72c0,17.081-13.897,30.977-30.977,30.977
	h-48.199c7.265-8.28,11.675-19.123,11.675-30.977v-78.72c0-4.43-3.592-8.022-8.022-8.022c-4.43,0-8.022,3.592-8.022,8.022v78.72
	c0,17.081-13.897,30.977-30.977,30.977h-37.637c-17.081,0-30.977-13.897-30.977-30.977v-17.266c0-4.43-3.592-8.022-8.022-8.022
	c-4.43,0-8.022,3.592-8.022,8.022v17.266c0,25.928,21.094,47.022,47.022,47.022h37.637h83.547c25.928,0,47.022-21.094,47.022-47.022
	v-78.72C456.184,381.827,452.592,378.235,448.162,378.235z"/>
<path style="fill:#464655;" d="M248.977,405.995c-9.078,0-16.437,7.359-16.437,16.437v26.108c0,9.078,7.359,16.437,16.437,16.437
	c9.078,0,16.437-7.359,16.437-16.437v-26.108C265.415,413.355,258.056,405.995,248.977,405.995z"/>
<path style="opacity:0.1;enable-background:new    ;" d="M248.585,448.54v-26.108c0-6.162,3.397-11.525,8.415-14.339
	c-2.373-1.331-5.106-2.098-8.022-2.098c-9.078,0-16.437,7.359-16.437,16.437v26.108c0,9.078,7.359,16.437,16.437,16.437
	c2.916,0,5.649-0.767,8.022-2.098C251.982,460.067,248.585,454.703,248.585,448.54z"/>
<path style="fill:#D2555A;" d="M386.887,400.319h-44.548V291.077c0-12.302,9.972-22.274,22.274-22.274l0,0
	c12.302,0,22.274,9.972,22.274,22.274V400.319z"/>
<rect x="342.344" y="306.693" style="fill:#FF6465;" width="44.548" height="16.044"/>
<path style="fill:#464655;" d="M470.434,400.319h-44.548V291.077c0-12.302,9.972-22.274,22.274-22.274l0,0
	c12.302,0,22.274,9.972,22.274,22.274V400.319z"/>
<path style="opacity:0.1;enable-background:new    ;" d="M456.719,270.512c-2.636-1.097-5.525-1.709-8.557-1.709l0,0
	c-12.302,0-22.274,9.972-22.274,22.274V400.32h17.114V291.077C443.002,281.808,448.664,273.866,456.719,270.512z"/>
<path style="opacity:0.1;enable-background:new    ;" d="M373.171,270.512c-2.636-1.097-5.525-1.709-8.557-1.709l0,0
	c-12.302,0-22.274,9.972-22.274,22.274V400.32h17.114V291.077C359.455,281.808,365.118,273.866,373.171,270.512z"/>
<polygon style="fill:#2A2A33;" points="425.888,306.692 425.888,306.692 425.888,322.737 425.888,322.737 470.434,322.737 
	470.434,306.692 "/>
<g>
	<path style="fill:#AAB1C6;" d="M364.614,293.596c-4.43,0-8.022-3.592-8.022-8.022v-75.038c0-4.43,3.592-8.022,8.022-8.022
		c4.43,0,8.022,3.592,8.022,8.022v75.038C372.637,290.004,369.045,293.596,364.614,293.596z"/>
	<path style="fill:#AAB1C6;" d="M448.162,293.596c-4.43,0-8.022-3.592-8.022-8.022v-75.038c0-4.43,3.592-8.022,8.022-8.022
		c4.43,0,8.022,3.592,8.022,8.022v75.038C456.184,290.004,452.592,293.596,448.162,293.596z"/>
</g>
<g>
</g>
<g>
</g>
<g>
</g>
<g>
</g>
<g>
</g>
<g>
</g>
<g>
</g>
<g>
</g>
<g>
</g>
<g>
</g>
<g>
</g>
<g>
</g>
<g>
</g>
<g>
</g>
<g>
</g>
</svg>
